<svg version="1.1" preserveAspectRatio="none" xmlns="http://www.w3.org/2000/svg" width="500" height="500" viewBox="0 0 500 500"><rect width="100%" height="100%" fill="#5CB8FF" fill-opacity="1"/><svg viewBox="48.7489 284.0678 427.9967 292.7334" width="333" height="227.75928459261488" x="83.5px" y="136.1204px" xmlns="http://www.w3.org/2000/svg" xmlns:xlink="http://www.w3.org/1999/xlink" preserveAspectRatio="none"><defs></defs><style>.a6izo4zJpcolor {fill:#FFFFFF;fill-opacity:1;}.aD6z1nYkhcolor {fill:#FFFFFF;fill-opacity:1;}.aLgOaV3zRcolors-3 {fill:#58FF75;fill-opacity:1;}.aLgOaV3zRcolors-4 {fill:#3A9AF9;fill-opacity:1;}.aLgOaV3zRcolors-5 {fill:#3288DD;fill-opacity:1;}.aLgOaV3zRcolors-6 {fill:#00B0BE;fill-opacity:1;}.aLgOaV3zRcolors-7 {fill:#89FF9D;fill-opacity:1;}.icon1 {fill:#005477;fill-opacity:1;}.icon2 {fill:#FFFFFF;fill-opacity:1;}.icon3 {fill:#007B8B;fill-opacity:1;}.icon3-str {stroke:#007B8B;stroke-opacity:1;}</style><g opacity="1" transform="rotate(0 48.7489 552.8012)">
<svg width="427.9967" height="24" x="48.7489" y="552.8012" version="1.1" preserveAspectRatio="none" viewBox="0.16 -29.68 532.8000000000001 29.88">
  <g transform="matrix(1 0 0 1 0 0)" class="a6izo4zJpcolor"><path id="id-6izo4zJp27" d="M10 0L10-25.44L0.16-25.44L0.16-28L22.80-28L22.80-25.44L12.96-25.44L12.96 0L10 0Z M33.12-21.20Q37.24-21.20 39.44-19.14Q41.64-17.08 41.64-13.04L41.64-13.04L41.64 0L38.92 0L38.92-3.28Q37.96-1.64 36.10-0.72Q34.24 0.20 31.68 0.20L31.68 0.20Q28.16 0.20 26.08-1.48Q24-3.16 24-5.92L24-5.92Q24-8.60 25.94-10.24Q27.88-11.88 32.12-11.88L32.12-11.88L38.80-11.88L38.80-13.16Q38.80-15.88 37.28-17.30Q35.76-18.72 32.84-18.72L32.84-18.72Q30.84-18.72 29-18.06Q27.16-17.40 25.84-16.24L25.84-16.24L24.56-18.36Q26.16-19.72 28.40-20.46Q30.64-21.20 33.12-21.20L33.12-21.20ZM32.12-2.04Q34.52-2.04 36.24-3.14Q37.96-4.24 38.80-6.32L38.80-6.32L38.80-9.76L32.20-9.76Q26.80-9.76 26.80-6L26.80-6Q26.80-4.16 28.20-3.10Q29.60-2.04 32.12-2.04L32.12-2.04Z M49.36 0L49.36-29.68L52.20-29.68L52.20 0L49.36 0Z M76.40 0L67.92-10.56L62.96-6L62.96 0L60.12 0L60.12-29.68L62.96-29.68L62.96-9.56L75.52-21.04L79.04-21.04L70.04-12.44L79.88 0L76.40 0Z M104.72-3.32L105.72-1.28Q104.92-0.56 103.74-0.18Q102.56 0.20 101.28 0.20L101.28 0.20Q98.32 0.20 96.72-1.40Q95.12-3 95.12-5.92L95.12-5.92L95.12-18.64L91.36-18.64L91.36-21.04L95.12-21.04L95.12-25.64L97.96-25.64L97.96-21.04L104.36-21.04L104.36-18.64L97.96-18.64L97.96-6.08Q97.96-4.20 98.90-3.22Q99.84-2.24 101.60-2.24L101.60-2.24Q102.48-2.24 103.30-2.52Q104.12-2.80 104.72-3.32L104.72-3.32Z M118.72 0.20Q115.68 0.20 113.24-1.18Q110.80-2.56 109.40-5Q108.00-7.44 108.00-10.52L108.00-10.52Q108.00-13.60 109.40-16.04Q110.80-18.48 113.24-19.84Q115.68-21.20 118.72-21.20L118.72-21.20Q121.76-21.20 124.20-19.84Q126.64-18.48 128.02-16.04Q129.40-13.60 129.40-10.52L129.40-10.52Q129.40-7.44 128.02-5Q126.64-2.56 124.20-1.18Q121.76 0.20 118.72 0.20L118.72 0.20ZM118.72-2.32Q120.96-2.32 122.74-3.34Q124.52-4.36 125.52-6.24Q126.52-8.12 126.52-10.52L126.52-10.52Q126.52-12.92 125.52-14.80Q124.52-16.68 122.74-17.70Q120.96-18.72 118.72-18.72L118.72-18.72Q116.48-18.72 114.70-17.70Q112.92-16.68 111.90-14.80Q110.88-12.92 110.88-10.52L110.88-10.52Q110.88-8.12 111.90-6.24Q112.92-4.36 114.70-3.34Q116.48-2.32 118.72-2.32L118.72-2.32Z M153.04-21.20Q157.16-21.20 159.36-19.14Q161.56-17.08 161.56-13.04L161.56-13.04L161.56 0L158.84 0L158.84-3.28Q157.88-1.64 156.02-0.72Q154.16 0.20 151.60 0.20L151.60 0.20Q148.08 0.20 146-1.48Q143.92-3.16 143.92-5.92L143.92-5.92Q143.92-8.60 145.86-10.24Q147.80-11.88 152.04-11.88L152.04-11.88L158.72-11.88L158.72-13.16Q158.72-15.88 157.20-17.30Q155.68-18.72 152.76-18.72L152.76-18.72Q150.76-18.72 148.92-18.06Q147.08-17.40 145.76-16.24L145.76-16.24L144.48-18.36Q146.08-19.72 148.32-20.46Q150.56-21.20 153.04-21.20L153.04-21.20ZM152.04-2.04Q154.44-2.04 156.16-3.14Q157.88-4.24 158.72-6.32L158.72-6.32L158.72-9.76L152.12-9.76Q146.72-9.76 146.72-6L146.72-6Q146.72-4.16 148.12-3.10Q149.52-2.04 152.04-2.04L152.04-2.04Z M180.36 0L180.36-28L191.76-28Q196.20-28 199.60-26.22Q203.00-24.44 204.88-21.26Q206.76-18.08 206.76-14L206.76-14Q206.76-9.92 204.88-6.74Q203.00-3.56 199.60-1.78Q196.20 0 191.76 0L191.76 0L180.36 0ZM183.32-2.56L191.60-2.56Q195.28-2.56 198.04-4.02Q200.80-5.48 202.32-8.06Q203.84-10.64 203.84-14L203.84-14Q203.84-17.36 202.32-19.94Q200.80-22.52 198.04-23.98Q195.28-25.44 191.60-25.44L191.60-25.44L183.32-25.44L183.32-2.56Z M221.40 0.20Q218.36 0.20 215.92-1.18Q213.48-2.56 212.08-5Q210.68-7.44 210.68-10.52L210.68-10.52Q210.68-13.60 212.08-16.04Q213.48-18.48 215.92-19.84Q218.36-21.20 221.40-21.20L221.40-21.20Q224.44-21.20 226.88-19.84Q229.32-18.48 230.70-16.04Q232.08-13.60 232.08-10.52L232.08-10.52Q232.08-7.44 230.70-5Q229.32-2.56 226.88-1.18Q224.44 0.20 221.40 0.20L221.40 0.20ZM221.40-2.32Q223.64-2.32 225.42-3.34Q227.20-4.36 228.20-6.24Q229.20-8.12 229.20-10.52L229.20-10.52Q229.20-12.92 228.20-14.80Q227.20-16.68 225.42-17.70Q223.64-18.72 221.40-18.72L221.40-18.72Q219.16-18.72 217.38-17.70Q215.60-16.68 214.58-14.80Q213.56-12.92 213.56-10.52L213.56-10.52Q213.56-8.12 214.58-6.24Q215.60-4.36 217.38-3.34Q219.16-2.32 221.40-2.32L221.40-2.32Z M246.60 0.20Q243.48 0.20 241.02-1.16Q238.56-2.52 237.16-4.98Q235.76-7.44 235.76-10.52L235.76-10.52Q235.76-13.60 237.16-16.04Q238.56-18.48 241.02-19.84Q243.48-21.20 246.60-21.20L246.60-21.20Q249.32-21.20 251.46-20.14Q253.60-19.08 254.84-17.04L254.84-17.04L252.72-15.60Q251.68-17.16 250.08-17.94Q248.48-18.72 246.60-18.72L246.60-18.72Q244.32-18.72 242.50-17.70Q240.68-16.68 239.66-14.80Q238.64-12.92 238.64-10.52L238.64-10.52Q238.64-8.08 239.66-6.22Q240.68-4.36 242.50-3.34Q244.32-2.32 246.60-2.32L246.60-2.32Q248.48-2.32 250.08-3.08Q251.68-3.84 252.72-5.40L252.72-5.40L254.84-3.96Q253.60-1.92 251.44-0.86Q249.28 0.20 246.60 0.20L246.60 0.20Z M270.72-3.32L271.72-1.28Q270.92-0.56 269.74-0.18Q268.56 0.20 267.28 0.20L267.28 0.20Q264.32 0.20 262.72-1.40Q261.12-3 261.12-5.92L261.12-5.92L261.12-18.64L257.36-18.64L257.36-21.04L261.12-21.04L261.12-25.64L263.96-25.64L263.96-21.04L270.36-21.04L270.36-18.64L263.96-18.64L263.96-6.08Q263.96-4.20 264.90-3.22Q265.84-2.24 267.60-2.24L267.60-2.24Q268.48-2.24 269.30-2.52Q270.12-2.80 270.72-3.32L270.72-3.32Z M284.72 0.20Q281.68 0.20 279.24-1.18Q276.80-2.56 275.40-5Q274-7.44 274-10.52L274-10.52Q274-13.60 275.40-16.04Q276.80-18.48 279.24-19.84Q281.68-21.20 284.72-21.20L284.72-21.20Q287.76-21.20 290.20-19.84Q292.64-18.48 294.02-16.04Q295.40-13.60 295.40-10.52L295.40-10.52Q295.40-7.44 294.02-5Q292.64-2.56 290.20-1.18Q287.76 0.20 284.72 0.20L284.72 0.20ZM284.72-2.32Q286.96-2.32 288.74-3.34Q290.52-4.36 291.52-6.24Q292.52-8.12 292.52-10.52L292.52-10.52Q292.52-12.92 291.52-14.80Q290.52-16.68 288.74-17.70Q286.96-18.72 284.72-18.72L284.72-18.72Q282.48-18.72 280.70-17.70Q278.92-16.68 277.90-14.80Q276.88-12.92 276.88-10.52L276.88-10.52Q276.88-8.12 277.90-6.24Q278.92-4.36 280.70-3.34Q282.48-2.32 284.72-2.32L284.72-2.32Z M303.92-16.92Q304.92-19.04 306.90-20.12Q308.88-21.20 311.80-21.20L311.80-21.20L311.80-18.44L311.12-18.48Q307.80-18.48 305.92-16.44Q304.04-14.40 304.04-10.72L304.04-10.72L304.04 0L301.20 0L301.20-21.04L303.92-21.04L303.92-16.92Z M327.72 0L327.72-21.04L330.56-21.04L330.56 0L327.72 0ZM329.16-25.64Q328.28-25.64 327.68-26.24Q327.08-26.84 327.08-27.68L327.08-27.68Q327.08-28.48 327.68-29.08Q328.28-29.68 329.16-29.68L329.16-29.68Q330.04-29.68 330.64-29.10Q331.24-28.52 331.24-27.72L331.24-27.72Q331.24-26.84 330.64-26.24Q330.04-25.64 329.16-25.64L329.16-25.64Z M349.20-21.20Q353.16-21.20 355.50-18.90Q357.84-16.60 357.84-12.20L357.84-12.20L357.84 0L355.00 0L355.00-11.92Q355.00-15.20 353.36-16.92Q351.72-18.64 348.68-18.64L348.68-18.64Q345.28-18.64 343.30-16.62Q341.32-14.60 341.32-11.04L341.32-11.04L341.32 0L338.48 0L338.48-21.04L341.20-21.04L341.20-17.16Q342.36-19.08 344.42-20.14Q346.48-21.20 349.20-21.20L349.20-21.20Z M403.28-28L405.72-28L405.72 0L402.88 0L402.88-22.40L391.88-3.56L390.48-3.56L379.48-22.28L379.48 0L376.64 0L376.64-28L379.08-28L391.24-7.24L403.28-28Z M414.24 0L414.24-21.04L417.08-21.04L417.08 0L414.24 0ZM415.68-25.64Q414.80-25.64 414.20-26.24Q413.60-26.84 413.60-27.68L413.60-27.68Q413.60-28.48 414.20-29.08Q414.80-29.68 415.68-29.68L415.68-29.68Q416.56-29.68 417.16-29.10Q417.76-28.52 417.76-27.72L417.76-27.72Q417.76-26.84 417.16-26.24Q416.56-25.64 415.68-25.64L415.68-25.64Z M435.72-21.20Q439.68-21.20 442.02-18.90Q444.36-16.60 444.36-12.20L444.36-12.20L444.36 0L441.52 0L441.52-11.92Q441.52-15.20 439.88-16.92Q438.24-18.64 435.20-18.64L435.20-18.64Q431.80-18.64 429.82-16.62Q427.84-14.60 427.84-11.04L427.84-11.04L427.84 0L425 0L425-21.04L427.72-21.04L427.72-17.16Q428.88-19.08 430.94-20.14Q433-21.20 435.72-21.20L435.72-21.20Z M468.20-21.04L471.04-21.04L471.04 0L468.32 0L468.32-3.84Q467.20-1.92 465.24-0.86Q463.28 0.20 460.76 0.20L460.76 0.20Q456.64 0.20 454.26-2.10Q451.88-4.40 451.88-8.84L451.88-8.84L451.88-21.04L454.72-21.04L454.72-9.12Q454.72-5.80 456.36-4.08Q458-2.36 461.04-2.36L461.04-2.36Q464.36-2.36 466.28-4.38Q468.20-6.40 468.20-10L468.20-10L468.20-21.04Z M489.08-3.32L490.08-1.28Q489.28-0.56 488.10-0.18Q486.92 0.20 485.64 0.20L485.64 0.20Q482.68 0.20 481.08-1.40Q479.48-3 479.48-5.92L479.48-5.92L479.48-18.64L475.72-18.64L475.72-21.04L479.48-21.04L479.48-25.64L482.32-25.64L482.32-21.04L488.72-21.04L488.72-18.64L482.32-18.64L482.32-6.08Q482.32-4.20 483.26-3.22Q484.20-2.24 485.96-2.24L485.96-2.24Q486.84-2.24 487.66-2.52Q488.48-2.80 489.08-3.32L489.08-3.32Z M512.84-10.52L512.80-9.64L495.20-9.64Q495.44-6.36 497.72-4.34Q500.00-2.32 503.48-2.32L503.48-2.32Q505.44-2.32 507.08-3.02Q508.72-3.72 509.92-5.08L509.92-5.08L511.52-3.24Q510.12-1.56 508.02-0.68Q505.92 0.20 503.40 0.20L503.40 0.20Q500.16 0.20 497.66-1.18Q495.16-2.56 493.76-5Q492.36-7.44 492.36-10.52L492.36-10.52Q492.36-13.60 493.70-16.04Q495.04-18.48 497.38-19.84Q499.72-21.20 502.64-21.20L502.64-21.20Q505.56-21.20 507.88-19.84Q510.20-18.48 511.52-16.06Q512.84-13.64 512.84-10.52L512.84-10.52ZM502.64-18.76Q499.60-18.76 497.54-16.82Q495.48-14.88 495.20-11.76L495.20-11.76L510.12-11.76Q509.84-14.88 507.78-16.82Q505.72-18.76 502.64-18.76L502.64-18.76Z M524.28 0.20Q521.72 0.20 519.38-0.54Q517.04-1.28 515.72-2.40L515.72-2.40L517.00-4.64Q518.32-3.60 520.32-2.94Q522.32-2.28 524.48-2.28L524.48-2.28Q527.36-2.28 528.74-3.18Q530.12-4.08 530.12-5.72L530.12-5.72Q530.12-6.88 529.36-7.54Q528.60-8.20 527.44-8.54Q526.28-8.88 524.36-9.20L524.36-9.20Q521.80-9.68 520.24-10.18Q518.68-10.68 517.58-11.88Q516.48-13.08 516.48-15.20L516.48-15.20Q516.48-17.84 518.68-19.52Q520.88-21.20 524.80-21.20L524.80-21.20Q526.84-21.20 528.88-20.66Q530.92-20.12 532.24-19.24L532.24-19.24L531.00-16.96Q528.40-18.76 524.80-18.76L524.80-18.76Q522.08-18.76 520.70-17.80Q519.32-16.84 519.32-15.28L519.32-15.28Q519.32-14.08 520.10-13.36Q520.88-12.64 522.04-12.30Q523.20-11.96 525.24-11.60L525.24-11.60Q527.76-11.12 529.28-10.64Q530.80-10.16 531.88-9Q532.96-7.84 532.96-5.80L532.96-5.80Q532.96-3.04 530.66-1.42Q528.36 0.20 524.28 0.20L524.28 0.20Z"/></g>
</svg>
</g><g opacity="1" transform="rotate(0 80.8509 470.8012)">
<svg width="363.7926" height="60" x="80.8509" y="470.8012" version="1.1" preserveAspectRatio="none" viewBox="2.8 -28.56 176.56 29.12">
  <g transform="matrix(1 0 0 1 0 0)" class="aD6z1nYkhcolor"><path id="id-D6z1nYkh6" d="M2.80 0L2.80-28L16.04-28Q20.64-28 24.20-26.28Q27.76-24.56 29.72-21.40Q31.68-18.24 31.68-14L31.68-14Q31.68-9.76 29.72-6.60Q27.76-3.44 24.20-1.72Q20.64 0 16.04 0L16.04 0L2.80 0ZM10.72-6.32L15.72-6.32Q19.32-6.32 21.50-8.36Q23.68-10.40 23.68-14L23.68-14Q23.68-17.60 21.50-19.64Q19.32-21.68 15.72-21.68L15.72-21.68L10.72-21.68L10.72-6.32Z M49.96 0.56Q45.52 0.56 41.98-1.32Q38.44-3.20 36.42-6.52Q34.40-9.84 34.40-14L34.40-14Q34.40-18.16 36.42-21.48Q38.44-24.80 41.98-26.68Q45.52-28.56 49.96-28.56L49.96-28.56Q54.40-28.56 57.94-26.68Q61.48-24.80 63.50-21.48Q65.52-18.16 65.52-14L65.52-14Q65.52-9.84 63.50-6.52Q61.48-3.20 57.94-1.32Q54.40 0.56 49.96 0.56L49.96 0.56ZM49.96-6Q52.08-6 53.80-7Q55.52-8 56.52-9.82Q57.52-11.64 57.52-14L57.52-14Q57.52-16.36 56.52-18.18Q55.52-20 53.80-21Q52.08-22 49.96-22L49.96-22Q47.84-22 46.12-21Q44.40-20 43.40-18.18Q42.40-16.36 42.40-14L42.40-14Q42.40-11.64 43.40-9.82Q44.40-8 46.12-7Q47.84-6 49.96-6L49.96-6Z M83.64 0.56Q79.24 0.56 75.74-1.30Q72.24-3.16 70.24-6.48Q68.24-9.80 68.24-14L68.24-14Q68.24-18.20 70.24-21.52Q72.24-24.84 75.74-26.70Q79.24-28.56 83.64-28.56L83.64-28.56Q87.48-28.56 90.56-27.20Q93.64-25.84 95.68-23.28L95.68-23.28L90.64-18.72Q87.92-22 84.04-22L84.04-22Q81.76-22 79.98-21Q78.20-20 77.22-18.18Q76.24-16.36 76.24-14L76.24-14Q76.24-11.64 77.22-9.82Q78.20-8 79.98-7Q81.76-6 84.04-6L84.04-6Q87.92-6 90.64-9.28L90.64-9.28L95.68-4.72Q93.64-2.16 90.56-0.80Q87.48 0.56 83.64 0.56L83.64 0.56Z M112.00-28Q115.80-28 118.60-26.74Q121.40-25.48 122.92-23.14Q124.44-20.80 124.44-17.64L124.44-17.64Q124.44-14.48 122.92-12.16Q121.40-9.84 118.60-8.58Q115.80-7.32 112.00-7.32L112.00-7.32L107.12-7.32L107.12 0L99.20 0L99.20-28L112.00-28ZM111.52-13.56Q113.96-13.56 115.20-14.62Q116.44-15.68 116.44-17.64L116.44-17.64Q116.44-19.60 115.20-20.68Q113.96-21.76 111.52-21.76L111.52-21.76L107.12-21.76L107.12-13.56L111.52-13.56Z M147.84 0L145.64-5.44L133.80-5.44L131.60 0L123.52 0L135.88-28L143.68-28L156.08 0L147.84 0ZM136.12-11.28L143.32-11.28L139.72-20.24L136.12-11.28Z M162.88 0L162.88-21.72L154.28-21.72L154.28-28L179.36-28L179.36-21.72L170.80-21.72L170.80 0L162.88 0Z"/></g>
</svg>
</g><g opacity="1" transform="rotate(0 171.7991 284.0678)">
<svg width="181.8963" height="156.7334" x="171.7991" y="284.0678" version="1.1" preserveAspectRatio="none" viewBox="8.255001068115234 14.028999328613281 83.49198913574219 71.9419937133789">
  <g transform="matrix(1 0 0 1 0 0)" class="icon1"><g><path d="M67.332,53.572h11.464l-7.562,9.268L55.827,81.728c-1.944,2.576-5.024,4.243-8.496,4.243c-3.477,0-6.554-1.667-8.497-4.243   L13.63,51.165c-0.149-0.166-0.287-0.336-0.424-0.515l-0.228-0.27h0.021c-2.963-3.818-4.744-8.595-4.744-13.803   c0-12.455,10.098-22.548,22.551-22.548c6.46,0,12.272,2.729,16.382,7.08c4.11-4.352,9.92-7.08,16.38-7.08   c12.455,0,22.551,10.093,22.551,22.548c0,4.014-1.058,7.778-2.9,11.041h-14.08l-3.93-7.528c-0.545-1.048-1.643-1.667-2.839-1.592   c-1.178,0.078-2.199,0.849-2.6,1.96l-5.125,14.21l-4.239-20.936c-0.26-1.279-1.324-2.242-2.623-2.372   c-1.298-0.132-2.532,0.603-3.038,1.807l-5.584,13.26h-12.32c-1.644,0-2.976,1.333-2.976,2.977s1.332,2.977,2.976,2.977h14.296   c1.197,0,2.278-0.717,2.743-1.823l2.605-6.187l4.436,21.896c0.264,1.311,1.367,2.281,2.701,2.379   c0.071,0.006,0.145,0.008,0.217,0.008c1.245,0,2.37-0.779,2.799-1.967l6.429-17.829l1.626,3.114   C65.205,52.956,66.224,53.572,67.332,53.572z M88.77,47.618h-5.552c-0.602,1.065-1.285,2.078-2.047,3.029h0.012l-0.128,0.158   c-0.033,0.042-0.071,0.085-0.106,0.129l-2.152,2.638h9.974c1.644,0,2.976-1.333,2.976-2.977   C91.745,48.952,90.413,47.618,88.77,47.618z"></path></g></g>
</svg>
</g></svg></svg>